<svg width="145" height="45" viewBox="0 0 145 45" fill="none" xmlns="http://www.w3.org/2000/svg">
<rect width="145" height="45" rx="6" fill="#2B2F4A"/>
<path d="M50.7605 11.9368H51.6665C52.0747 11.9368 52.4092 11.8305 52.6692 11.6163C52.795 11.5153 52.8954 11.3884 52.963 11.2451C53.0308 11.1018 53.0638 10.9457 53.06 10.7885C53.06 10.4566 52.9411 10.1939 52.7017 10.001C52.4639 9.80806 52.1389 9.71237 51.7268 9.71237C51.3114 9.71237 50.9777 9.80806 50.7233 10.001C50.4665 10.1939 50.3206 10.4597 50.2873 10.7976H49.4741C49.5177 10.2402 49.742 9.80046 50.1478 9.48074C50.556 9.16025 51.0934 9 51.7593 9C52.3847 9 52.9007 9.16176 53.3057 9.48453C53.7084 9.80503 53.9097 10.2159 53.9097 10.7171C53.9097 11.0741 53.7948 11.3893 53.5657 11.6649C53.3381 11.9381 53.0207 12.1294 52.6652 12.2079V12.2436C53.1107 12.2998 53.4619 12.4707 53.7195 12.7555C53.9763 13.0433 54.1047 13.4048 54.1047 13.8415C54.1047 14.3693 53.8772 14.8159 53.4222 15.1805C52.9665 15.5427 52.4076 15.7235 51.745 15.7235C51.0395 15.7235 50.4617 15.5564 50.0131 15.2207C49.5636 14.8888 49.3235 14.4483 49.2933 13.8993H50.1018C50.1383 14.2372 50.3056 14.5068 50.6028 14.7088C50.8969 14.9108 51.275 15.0119 51.7363 15.0119C52.1849 15.0119 52.5487 14.9017 52.8277 14.6823C53.106 14.4597 53.2455 14.1719 53.2455 13.8187C53.2455 13.4512 53.1091 13.1656 52.8365 12.9606C52.5646 12.7525 52.1865 12.6492 51.703 12.6492H50.7605V11.9368ZM56.6023 14.9443C57.0113 14.9443 57.3506 14.8319 57.6201 14.6071C57.8864 14.3785 58.0195 14.0922 58.0195 13.7481V13.3608L56.7101 13.4405C55.9484 13.4853 55.5671 13.742 55.5671 14.2106C55.5671 14.4331 55.6622 14.6109 55.8509 14.7445C56.0364 14.8782 56.2868 14.945 56.6031 14.945L56.6023 14.9443ZM56.4311 15.6171C55.9238 15.6171 55.5148 15.488 55.2049 15.2298C54.8957 14.9716 54.7404 14.6298 54.7404 14.2061C54.7404 13.7937 54.9013 13.4702 55.2239 13.2362C55.5457 12.9985 56.0102 12.8626 56.6166 12.8261L58.0195 12.7464V12.3462C58.0195 12.05 57.9205 11.8214 57.7223 11.6611C57.5241 11.5009 57.2412 11.4204 56.8726 11.4204C56.5817 11.4204 56.3368 11.4872 56.1386 11.6209C56.042 11.6825 55.9589 11.7618 55.8943 11.8542C55.8297 11.9466 55.7848 12.0503 55.7621 12.1593H54.9869C54.9988 11.7561 55.1866 11.4158 55.5489 11.1402C55.9111 10.8667 56.355 10.7308 56.8813 10.7308C57.4734 10.7308 57.945 10.8705 58.2986 11.1485C58.6513 11.431 58.8272 11.8077 58.8272 12.2801V15.5723H58.0616V14.74H58.0425C57.8999 15.0073 57.6835 15.2192 57.3926 15.3764C57.1017 15.5366 56.7806 15.6171 56.4311 15.6171ZM60.6852 11.4158V12.7692H61.7997C62.4282 12.7692 62.7429 12.5406 62.7429 12.0834C62.7429 11.6384 62.4718 11.4158 61.9296 11.4158H60.6852ZM60.6852 13.4094V14.9314H62.0224C62.6486 14.9314 62.9609 14.6807 62.9609 14.1795C62.9609 13.6661 62.597 13.4094 61.8694 13.4094H60.6852ZM59.8862 10.7756H62.0319C62.4964 10.7756 62.8634 10.885 63.1329 11.1045C63.3992 11.3247 63.5324 11.6239 63.5324 12.0037C63.5324 12.2467 63.4531 12.4677 63.2946 12.6667C63.1376 12.8656 62.9434 12.9887 62.7144 13.0358V13.0714C63.0275 13.1132 63.2795 13.2362 63.4713 13.4405C63.6608 13.6456 63.7551 13.8962 63.7551 14.1924C63.7551 14.6177 63.6021 14.9541 63.2954 15.2025C62.9886 15.4493 62.5709 15.5723 62.0414 15.5723H59.8862V10.7756ZM66.2765 14.945C66.6855 14.945 67.0247 14.8319 67.2935 14.6071C67.5598 14.3785 67.6929 14.0922 67.6929 13.7481V13.3608L66.3835 13.4405C65.6218 13.4853 65.2413 13.742 65.2413 14.2106C65.2413 14.4331 65.3356 14.6109 65.5243 14.7445C65.7098 14.8782 65.9602 14.945 66.2773 14.945H66.2765ZM66.1045 15.6171C65.5972 15.6171 65.1882 15.488 64.8783 15.2298C64.5691 14.9716 64.4146 14.6298 64.4146 14.2061C64.4146 13.7937 64.5755 13.4702 64.8973 13.2362C65.2191 12.9985 65.6836 12.8626 66.2908 12.8261L67.6937 12.7464V12.3462C67.6937 12.05 67.5939 11.8214 67.3957 11.6611C67.1975 11.5009 66.9146 11.4204 66.546 11.4204C66.2551 11.4204 66.0102 11.4872 65.812 11.6209C65.7156 11.6826 65.6327 11.7619 65.5683 11.8543C65.5038 11.9467 65.4589 12.0503 65.4363 12.1593H64.6603C64.673 11.7561 64.86 11.4158 65.2231 11.1402C65.5845 10.8667 66.0292 10.7308 66.5547 10.7308C67.1468 10.7308 67.6192 10.8705 67.972 11.1485C68.3247 11.431 68.5014 11.8077 68.5014 12.2801V15.5723H67.735V14.74H67.7167C67.5741 15.0073 67.3569 15.2192 67.0668 15.3764C66.7751 15.5366 66.4548 15.6171 66.1045 15.6171ZM72.9038 13.4011H70.3594V15.5723H69.5596V10.7756H70.3586V12.7601H72.9038V10.7756H73.7028V15.5723H72.903V13.4003L72.9038 13.4011ZM78.4539 11.4158H76.8281V15.5723H76.0292V11.4158H74.4042V10.7756H78.4539V11.4158ZM80.6495 14.945C81.0585 14.945 81.3977 14.8319 81.6672 14.6071C81.9336 14.3785 82.0667 14.0922 82.0667 13.7481V13.3608L80.7573 13.4405C79.9955 13.4853 79.6143 13.742 79.6143 14.2106C79.6143 14.4331 79.7094 14.6109 79.898 14.7445C80.0835 14.8782 80.334 14.945 80.6503 14.945H80.6495ZM80.4783 15.6171C79.971 15.6171 79.562 15.488 79.252 15.2298C78.9429 14.9716 78.7876 14.6298 78.7876 14.2061C78.7876 13.7937 78.9485 13.4702 79.2711 13.2362C79.5929 12.9985 80.0574 12.8626 80.6637 12.8261L82.0667 12.7464V12.3462C82.0667 12.05 81.9676 11.8214 81.7695 11.6611C81.5713 11.5009 81.2875 11.4204 80.9198 11.4204C80.6281 11.4204 80.3839 11.4872 80.1858 11.6209C80.0892 11.6825 80.0061 11.7618 79.9415 11.8542C79.8769 11.9466 79.832 12.0503 79.8093 12.1593H79.0341C79.046 11.7561 79.2338 11.4158 79.5961 11.1402C79.9583 10.8667 80.4022 10.7308 80.9285 10.7308C81.5198 10.7308 81.9922 10.8705 82.3449 11.1485C82.6984 11.431 82.8744 11.8077 82.8744 12.2801V15.5723H82.1087V14.74H82.0897C81.947 15.0073 81.7306 15.2192 81.4397 15.3764C81.1488 15.5366 80.8278 15.6171 80.4783 15.6171ZM90.4957 15.5723H89.451L87.4028 13.2537H87.3655V15.5723H86.5665V13.2537H86.5293L84.4811 15.5723H83.4546L85.7263 13.0585L83.5062 10.7756H84.5049L86.5293 12.9066H86.5665V10.7756H87.3655V12.9066H87.4028L89.428 10.7756H90.4212L88.2105 13.0449L90.4957 15.5723ZM91.1274 15.5723V10.7756H91.9264V14.3754H91.9629L94.5405 10.7756H95.3395V15.5723H94.5405V11.9725H94.5033L91.9264 15.5723H91.1274ZM100.091 11.4158H98.4657V15.5723H97.6659V11.4158H96.041V10.7756H100.091V11.4158ZM100.791 15.5723V10.7756H101.59V14.3754H101.628L104.205 10.7756H105.004V15.5723H104.205V11.9725H104.168L101.59 15.5723H100.791ZM109.959 15.6521C109.414 15.6521 108.962 15.5336 108.603 15.2967C108.241 15.0589 108.038 14.7422 107.994 14.3443H108.817C108.84 14.4461 108.884 14.5422 108.948 14.6265C109.012 14.7107 109.094 14.7812 109.188 14.8334C109.389 14.9496 109.646 15.0073 109.959 15.0073C110.321 15.0073 110.604 14.9314 110.809 14.7802C110.904 14.7134 110.981 14.6254 111.032 14.5237C111.084 14.4221 111.11 14.31 111.106 14.197C111.106 13.6661 110.724 13.4011 109.959 13.4011H109.202V12.7601H109.959C110.612 12.7601 110.939 12.5208 110.939 12.0439C110.939 11.8297 110.862 11.6627 110.706 11.5404C110.54 11.4075 110.298 11.3406 109.982 11.3406C109.682 11.3406 109.434 11.3984 109.239 11.5138C109.044 11.63 108.93 11.7842 108.895 11.9771H108.106C108.127 11.7894 108.19 11.6084 108.291 11.4462C108.392 11.2841 108.529 11.1448 108.691 11.0376C109.028 10.8067 109.46 10.6906 109.983 10.6906C110.536 10.6906 110.968 10.8105 111.278 11.0513C111.578 11.2829 111.728 11.5943 111.728 11.9854C111.728 12.2345 111.653 12.4548 111.501 12.6446C111.352 12.8366 111.136 12.9708 110.893 13.0228V13.0578C111.564 13.1975 111.9 13.5636 111.9 14.1575C111.9 14.6025 111.723 14.9625 111.366 15.2389C111.01 15.5146 110.542 15.6521 109.959 15.6521ZM58.5086 32.0601L57.3672 28.8309H52.6137L51.4731 32.0601H49.4598L53.962 20.1116H56.0538L60.556 32.0601H58.5086ZM54.9647 22.0983L53.1068 27.3401H56.875L55.0162 22.0983H54.9647ZM66.5801 22.9762C68.9739 22.9762 70.5472 24.7731 70.5472 27.5633C70.5472 30.346 68.9826 32.1505 66.6237 32.1505C65.2754 32.1505 64.2117 31.5802 63.6505 30.586H63.6156V35H61.7402V23.0675H63.5466V24.5583H63.5894C64.1173 23.5891 65.2754 22.9762 66.5801 22.9762ZM66.1045 30.6277C67.6264 30.6277 68.6283 29.4271 68.6283 27.5633C68.6283 25.7088 67.6256 24.4997 66.1045 24.4997C64.6183 24.4997 63.6077 25.7338 63.5982 27.5633C63.6069 29.4021 64.6096 30.6277 66.1045 30.6277ZM76.882 22.9762C79.2758 22.9762 80.8484 24.7731 80.8484 27.5633C80.8484 30.346 79.2845 32.1505 76.9248 32.1505C75.5774 32.1505 74.5136 31.5802 73.9524 30.586H73.9176V35H72.0422V23.0675H73.8486V24.5583H73.8914C74.4185 23.5891 75.5766 22.9762 76.882 22.9762ZM76.4065 30.6277C77.9275 30.6277 78.9302 29.4271 78.9302 27.5633C78.9302 25.7088 77.9275 24.4997 76.4065 24.4997C74.9203 24.4997 73.9088 25.7338 73.9001 27.5633C73.9088 29.4021 74.9115 30.6277 76.4065 30.6277ZM86.0601 28.7314H87.9703C88.1082 29.9154 89.3099 30.6938 90.9514 30.6938C92.5248 30.6938 93.6567 29.9154 93.6567 28.8476C93.6567 27.9195 92.9743 27.3652 91.3581 26.9838L89.7411 26.6118C87.4511 26.0817 86.3882 25.0549 86.3882 23.3901C86.3882 21.3282 88.2636 19.9119 90.9261 19.9119C93.5616 19.9119 95.368 21.3282 95.4283 23.3901H93.5442C93.4324 22.1978 92.4036 21.4779 90.8999 21.4779C89.3963 21.4779 88.3674 22.2061 88.3674 23.2664C88.3674 24.1108 89.0245 24.6076 90.632 24.9889L92.0064 25.3116C94.5643 25.8911 95.6272 26.876 95.6272 28.6235C95.6272 30.8594 93.7693 32.2591 90.8135 32.2591C88.0472 32.2591 86.1813 30.8921 86.0601 28.7314ZM97.7357 21.0472H99.6031V23.0675H101.4V24.483H99.6031V29.5099C99.6031 30.2882 99.9654 30.6521 100.752 30.6521C100.951 30.6521 101.271 30.6277 101.392 30.611V32.0267C101.184 32.0768 100.744 32.1178 100.338 32.1178C98.4617 32.1178 97.7357 31.4305 97.7357 29.6922V24.483H96.4397V23.0681H97.7357V21.048V21.0472ZM107.001 32.1679C104.287 32.1679 102.558 30.3954 102.558 27.5633C102.558 24.7397 104.296 22.9512 107.001 22.9512C109.706 22.9512 111.434 24.7322 111.434 27.5633C111.434 30.3962 109.714 32.1679 107.001 32.1679ZM107.001 30.6771C108.591 30.6771 109.533 29.5266 109.533 27.5633C109.533 25.601 108.591 24.442 107.001 24.442C105.411 24.442 104.46 25.6093 104.46 27.5633C104.46 29.5266 105.411 30.6771 107.001 30.6771ZM112.938 32.0601V23.0675H114.727V24.5825H114.762C115.055 23.5808 115.92 22.9762 117.026 22.9762C117.233 22.9762 117.502 23.0014 117.648 23.0423V24.7237C117.492 24.6653 117.104 24.6076 116.827 24.6076C115.591 24.6076 114.814 25.4277 114.814 26.6945V32.0601H112.938ZM122.79 24.4169C121.443 24.4169 120.465 25.361 120.362 26.7439H125.124C125.081 25.3443 124.156 24.4169 122.79 24.4169ZM125.115 29.4271H126.904C126.636 31.0416 124.986 32.1679 122.877 32.1679C120.155 32.1679 118.461 30.4121 118.461 27.5968C118.461 24.7815 120.171 22.9512 122.799 22.9512C125.375 22.9512 127 24.6653 127 27.3902V28.0191H120.353V28.1269C120.353 29.6838 121.373 30.7105 122.912 30.7105C124.001 30.7105 124.856 30.2139 125.115 29.4271ZM37.1255 30.5586C36.0538 32.0525 34.9457 33.5372 33.1972 33.5684C31.4755 33.5987 30.9239 32.5955 28.9597 32.5955C26.994 32.5955 26.3781 33.5372 24.7532 33.5995C23.0648 33.6595 21.7807 31.9857 20.7004 30.4986C18.4944 27.4577 16.8109 21.9009 19.0755 18.1499C20.1963 16.2877 22.2064 15.1091 24.383 15.0779C26.0412 15.0491 27.6082 16.145 28.6212 16.145C29.6358 16.145 31.5366 14.8296 33.5356 15.0225C34.3727 15.0551 36.7213 15.3437 38.2289 17.4489C38.11 17.5241 35.4261 19.0134 35.4586 22.1165C35.4919 25.8227 38.8638 27.0553 38.9034 27.072C38.8725 27.1593 38.3644 28.8309 37.1255 30.5578V30.5586ZM29.7809 10.9503C30.7067 9.91591 32.2714 9.14582 33.5618 9.09417C33.7274 10.5318 33.1211 11.971 32.2254 13.0084C31.3281 14.0435 29.8594 14.8501 28.4183 14.7422C28.2225 13.3357 28.9494 11.8692 29.7817 10.9503H29.7809Z" fill="white"/>
</svg>
