<svg width="145" height="45" viewBox="0 0 145 45" fill="none" xmlns="http://www.w3.org/2000/svg">
<rect width="145" height="45" rx="6" fill="#2B2F4A"/>
<path d="M53.4361 10.8538C53.4361 10.5051 53.3055 10.2272 53.0445 10.0217C52.7834 9.81539 52.4164 9.71224 51.9433 9.71224C51.5478 9.71224 51.2172 9.81847 50.9498 10.0302C50.6824 10.2426 50.5487 10.5051 50.5487 10.8176H49.6589C49.6589 10.4689 49.757 10.1556 49.9531 9.87927C50.1493 9.60216 50.4239 9.38662 50.7758 9.23268C51.1434 9.07467 51.5416 8.99539 51.9433 9.00021C52.698 9.00021 53.2833 9.16416 53.7003 9.49362C54.1179 9.82309 54.3259 10.2811 54.3259 10.8669C54.3259 11.1709 54.231 11.4473 54.0388 11.6967C53.8473 11.9469 53.5801 12.1432 53.2368 12.2879C54.0309 12.5465 54.428 13.0592 54.428 13.8259C54.428 14.4155 54.2025 14.8828 53.7516 15.2284C53.3008 15.5748 52.698 15.7472 51.9433 15.7472C51.4957 15.7472 51.089 15.6702 50.7229 15.5148C50.3566 15.3608 50.0709 15.1399 49.8669 14.8543C49.6636 14.5687 49.5615 14.2292 49.5615 13.8351H50.4515C50.4515 14.1807 50.5914 14.4686 50.8731 14.6988C51.154 14.929 51.5114 15.0436 51.9433 15.0436C52.429 15.0436 52.8159 14.9343 53.1045 14.7142C53.3933 14.4948 53.538 14.2046 53.538 13.8443C53.538 13.0746 53.0485 12.682 52.0691 12.6666H51.2346V11.9538H52.0643C52.5153 11.9453 52.857 11.846 53.0888 11.6567C53.3205 11.4673 53.4368 11.1994 53.4368 10.8538H53.4361ZM58.4883 15.6572C58.4385 15.5609 58.3981 15.3893 58.3673 15.1429C57.9686 15.5455 57.4932 15.7472 56.9395 15.7472C56.4451 15.7472 56.04 15.611 55.7229 15.3392C55.4065 15.0667 55.2483 14.7219 55.2483 14.3039C55.2483 13.7959 55.446 13.401 55.8439 13.12C56.241 12.839 56.7995 12.6982 57.5193 12.6982H58.3538V12.3148C58.3538 12.0231 58.2637 11.7914 58.0849 11.6182C57.9053 11.445 57.642 11.3588 57.2922 11.3588C56.9862 11.3588 56.7299 11.4342 56.5226 11.5843C56.3154 11.7344 56.2126 11.9169 56.2126 12.1301H55.3504C55.3504 11.8868 55.439 11.6513 55.6169 11.4242C55.8071 11.1879 56.0558 11.0024 56.3399 10.8854C56.6559 10.7507 56.9979 10.683 57.343 10.6868C57.9204 10.6868 58.3737 10.8276 58.7011 11.1086C59.0285 11.3896 59.1986 11.7768 59.2113 12.2702V14.5164C59.2113 14.9644 59.2699 15.32 59.3869 15.5848V15.6572H58.4883ZM57.0645 15.0213C57.3335 15.0213 57.589 14.9536 57.8294 14.8181C58.0707 14.6826 58.2454 14.5071 58.3538 14.2908V13.2893H57.6815C56.631 13.2893 56.1057 13.588 56.1057 14.1869C56.1057 14.4486 56.1951 14.6526 56.3747 14.8004C56.5535 14.9474 56.7836 15.0213 57.0653 15.0213H57.0645ZM60.5545 15.6572V10.7768H62.5107C63.1784 10.7768 63.6902 10.8908 64.0468 11.1178C64.4044 11.3441 64.5824 11.6775 64.5824 12.1162C64.5824 12.3418 64.5128 12.5457 64.3744 12.7274C64.2351 12.9099 64.0295 13.0484 63.7574 13.1446C64.0603 13.2139 64.3031 13.3494 64.4875 13.5511C64.6718 13.752 64.7636 13.9929 64.7636 14.2723C64.7636 14.7203 64.5943 15.0637 64.2556 15.3007C63.9171 15.5386 63.4393 15.6572 62.8216 15.6572H60.5545ZM61.4119 13.5149V14.9851H62.8302C63.1886 14.9851 63.4568 14.9205 63.6348 14.7912C63.8127 14.6618 63.9014 14.4802 63.9014 14.2454C63.9014 13.7581 63.5335 13.5141 62.7978 13.5141H61.4119V13.5149ZM61.4119 12.8475H62.5194C63.3231 12.8475 63.7249 12.6189 63.7249 12.1616C63.7249 11.7044 63.3453 11.4688 62.585 11.4535H61.4119V12.8467V12.8475ZM68.9157 15.6572C68.8666 15.5609 68.8263 15.3893 68.7955 15.1429C68.3968 15.5455 67.9214 15.7472 67.3677 15.7472C66.8732 15.7472 66.4682 15.611 66.151 15.3392C65.8346 15.0667 65.6764 14.7219 65.6764 14.3039C65.6764 13.7959 65.8741 13.401 66.272 13.12C66.6692 12.839 67.2276 12.6982 67.9474 12.6982H68.7812V12.3148C68.7812 12.0231 68.6918 11.7914 68.5122 11.6182C68.3334 11.445 68.0692 11.3588 67.7205 11.3588C67.4142 11.3588 67.1579 11.4342 66.9507 11.5843C66.7435 11.7344 66.6398 11.9169 66.6398 12.1301H65.7776C65.7776 11.8868 65.867 11.6513 66.0442 11.4242C66.2346 11.1877 66.4837 11.0023 66.7681 10.8854C67.0841 10.7507 67.426 10.683 67.771 10.6868C68.3485 10.6868 68.8017 10.8276 69.1292 11.1086C69.4567 11.3896 69.6267 11.7768 69.6386 12.2702V14.5164C69.6386 14.9644 69.698 15.32 69.815 15.5848V15.6572H68.9157ZM67.4926 15.0213C67.7616 15.0213 68.0171 14.9536 68.2575 14.8181C68.4987 14.6826 68.6737 14.5071 68.7812 14.2908V13.2893H68.1089C67.0591 13.2893 66.5339 13.588 66.5339 14.1869C66.5339 14.4486 66.6233 14.6526 66.8028 14.8004C66.9815 14.9474 67.2118 15.0213 67.4934 15.0213H67.4926ZM75.0018 15.6572H74.1444V13.5734H71.8409V15.6572H70.9786V10.7768H71.8409V12.8921H74.1444V10.7768H75.0018V15.6572ZM80.0257 11.4542H78.3439V15.6572H77.4857V11.4542H75.8356V10.7768H80.0249V11.4542H80.0257ZM83.8019 15.6572C83.753 15.5609 83.7127 15.3893 83.6817 15.1429C83.283 15.5455 82.8076 15.7472 82.2539 15.7472C81.7596 15.7472 81.3546 15.611 81.0373 15.3392C80.721 15.0667 80.5627 14.7219 80.5627 14.3039C80.5627 13.7959 80.7605 13.401 81.1584 13.12C81.5554 12.839 82.114 12.6982 82.8338 12.6982H83.6684V12.3148C83.6684 12.0231 83.5782 11.7914 83.3994 11.6182C83.2198 11.445 82.9564 11.3588 82.6067 11.3588C82.3006 11.3588 82.0443 11.4342 81.8371 11.5843C81.6299 11.7344 81.527 11.9169 81.527 12.1301H80.6648C80.6648 11.8868 80.7534 11.6513 80.9314 11.4242C81.1215 11.1879 81.3704 11.0024 81.6543 10.8854C81.9704 10.7507 82.3124 10.683 82.6574 10.6868C83.2349 10.6868 83.6881 10.8276 84.0156 11.1086C84.3431 11.3896 84.5131 11.7768 84.5258 12.2702V14.5164C84.5258 14.9644 84.5844 15.32 84.7014 15.5848V15.6572H83.8019ZM82.3797 15.0213C82.6487 15.0213 82.9034 14.9536 83.1439 14.8181C83.3851 14.6826 83.5599 14.5071 83.6684 14.2908V13.2893H82.9959C81.9454 13.2893 81.4203 13.588 81.4203 14.1869C81.4203 14.4486 81.5097 14.6526 81.6891 14.8004C81.8679 14.9474 82.0981 15.0213 82.3797 15.0213ZM89.7901 13.5372H89.1881V15.6572H88.3307V13.5372H87.7279L86.3238 15.6572H85.2377L87.0318 13.1315L85.4101 10.7768H86.448L87.7414 12.7975H88.3299V10.7768H89.1873V12.7975H89.7712L91.0731 10.7768H92.1117L90.4846 13.1362L92.2795 15.6572H91.1942L89.7893 13.5372H89.7901ZM96.2235 10.7768H97.0809V15.6572H96.2235V12.0985L93.9106 15.6572H93.0531V10.7768H93.9106V14.3409L96.2235 10.7768ZM102.105 11.4542H100.422V15.6572H99.5648V11.4542H97.9147V10.7768H102.105V11.4542ZM106.104 10.7768H106.962V15.6572H106.104V12.0985L103.791 15.6572H102.934V10.7768H103.791V14.3409L106.104 10.7768ZM113.288 12.1124C113.291 12.0072 113.269 11.9028 113.222 11.808C113.175 11.7132 113.105 11.6309 113.019 11.5681C112.84 11.435 112.595 11.368 112.282 11.368C111.979 11.368 111.727 11.445 111.524 11.5982C111.322 11.7514 111.221 11.9315 111.221 12.1393H110.368C110.368 11.7152 110.55 11.368 110.914 11.0971C111.279 10.8269 111.736 10.6914 112.282 10.6914C112.869 10.6914 113.326 10.8138 113.654 11.0586C113.981 11.3041 114.145 11.6536 114.145 12.1078C114.145 12.3271 114.078 12.5288 113.942 12.712C113.792 12.9057 113.592 13.0567 113.362 13.1492C113.947 13.3417 114.238 13.7204 114.238 14.2862C114.238 14.7342 114.06 15.0891 113.705 15.3508C113.349 15.6125 112.875 15.7434 112.282 15.7434C111.705 15.7434 111.228 15.6048 110.852 15.33C110.477 15.0552 110.289 14.6834 110.289 14.2138H111.142C111.142 14.4517 111.251 14.6549 111.469 14.825C111.687 14.9944 111.958 15.0798 112.282 15.0798C112.61 15.0798 112.874 15.0059 113.075 14.8589C113.169 14.7947 113.246 14.7089 113.298 14.609C113.351 14.5092 113.377 14.3983 113.375 14.2862C113.375 14.0122 113.292 13.8166 113.123 13.6973C112.955 13.5788 112.694 13.5195 112.338 13.5195H111.48V12.8159H112.412C112.996 12.8006 113.288 12.5658 113.288 12.1124Z" fill="white"/>
<path fill-rule="evenodd" clip-rule="evenodd" d="M110.887 32.0923H112.622V20.341H110.887V32.0932V32.0923ZM126.497 24.5733L124.506 29.6667H124.447L122.389 24.5733H120.522L123.615 31.692L121.849 35.6539H123.659L128.424 24.5733H126.497ZM116.667 30.7563C116.1 30.7563 115.311 30.4717 115.311 29.7609C115.311 28.8509 116.295 28.5014 117.148 28.5014C117.91 28.5014 118.268 28.6713 118.731 28.8962C118.595 29.9851 117.67 30.7563 116.667 30.7563ZM116.876 24.3153C115.624 24.3153 114.324 24.8758 113.79 26.1148L115.325 26.7668C115.656 26.1148 116.264 25.904 116.907 25.904C117.805 25.904 118.717 26.4492 118.731 27.4144V27.538C118.416 27.3556 117.747 27.0835 116.922 27.0835C115.267 27.0835 113.58 28.0058 113.58 29.728C113.58 31.3024 114.935 32.3165 116.459 32.3165C117.624 32.3165 118.268 31.7845 118.671 31.1646H118.731V32.0719H120.404V27.5656C120.404 25.4814 118.867 24.3153 116.876 24.3153ZM106.171 26.0053H103.705V21.9759H106.171C107.464 21.9759 108.202 23.0611 108.202 23.9897C108.202 24.8989 107.464 26.0053 106.171 26.0053ZM106.127 20.3401H101.971V32.0923H103.704V27.6395H106.125C108.048 27.6395 109.934 26.2304 109.934 23.9897C109.934 21.7491 108.044 20.3401 106.125 20.3401H106.127ZM83.4871 30.7598C82.2902 30.7598 81.2892 29.7458 81.2892 28.3492C81.2892 26.9412 82.2902 25.9128 83.4871 25.9128C84.668 25.9128 85.5965 26.9412 85.5965 28.3501C85.5965 29.7458 84.667 30.7608 83.4871 30.7608V30.7598ZM85.4731 25.2289H85.4149C85.0248 24.7609 84.2815 24.3375 83.3395 24.3375C81.3598 24.3375 79.5519 26.0961 79.5519 28.3492C79.5519 30.5908 81.3598 32.3351 83.3386 32.3351C84.2815 32.3351 85.0248 31.9082 85.414 31.4279H85.4731V32.0007C85.4731 33.528 84.668 34.3507 83.3646 34.3507C82.3055 34.3507 81.647 33.5752 81.3751 32.9232L79.8651 33.5618C80.3016 34.6212 81.4538 35.9252 83.3655 35.9252C85.4023 35.9252 87.1199 34.7127 87.1199 31.7614V24.5822H85.474V25.2289H85.4731ZM88.3169 32.0923H90.0523V20.341H88.3169V32.0932V32.0923ZM92.6108 28.2123C92.5651 26.6717 93.7917 25.8809 94.6736 25.8809C95.3625 25.8809 95.9465 26.2304 96.1407 26.7295L92.6099 28.2123H92.6108ZM97.9952 26.8815C97.6696 25.9867 96.6622 24.3375 94.6137 24.3375C92.5831 24.3375 90.8914 25.9583 90.8914 28.3376C90.8914 30.5774 92.5642 32.3351 94.8087 32.3351C96.6219 32.3351 97.6696 31.2144 98.1007 30.5632L96.7535 29.6542C96.3045 30.3195 95.6935 30.7598 94.8087 30.7598C93.9302 30.7598 93.2996 30.3533 92.8952 29.5483L98.1785 27.3351L97.9952 26.8815ZM55.9265 25.5642V27.2631H59.9342C59.8169 28.2123 59.5038 28.9106 59.0226 29.3979C58.4375 29.9851 57.526 30.638 55.9265 30.638C53.4593 30.638 51.5279 28.6224 51.5279 26.1247C51.5279 23.6269 53.4593 21.6111 55.9265 21.6111C57.2595 21.6111 58.23 22.1395 58.9457 22.8236L60.1291 21.6255C59.1281 20.6577 57.7953 19.9141 55.9274 19.9141C52.5451 19.9141 49.7021 22.7 49.7021 26.1247C49.7021 29.5492 52.5451 32.3351 55.9274 32.3351C57.755 32.3351 59.1272 31.7293 60.2079 30.5918C61.3136 29.4709 61.6579 27.8965 61.6579 26.6245C61.6579 26.2304 61.6258 25.8666 61.5677 25.5642H55.9274H55.9265ZM66.2141 30.7598C65.0152 30.7598 63.983 29.7609 63.983 28.3376C63.983 26.895 65.0162 25.9128 66.2141 25.9128C67.4109 25.9128 68.4415 26.895 68.4415 28.3376C68.4415 29.7609 67.4109 30.7598 66.2141 30.7598ZM66.2141 24.3375C64.0286 24.3375 62.252 26.0187 62.252 28.3376C62.252 30.638 64.0286 32.3351 66.2141 32.3351C68.3985 32.3351 70.1769 30.638 70.1769 28.3376C70.1769 26.0187 68.3985 24.3375 66.2141 24.3375ZM74.8599 30.7598C73.6631 30.7598 72.6343 29.7609 72.6343 28.3376C72.6343 26.895 73.6631 25.9128 74.8599 25.9128C76.0569 25.9128 77.091 26.895 77.091 28.3376C77.091 29.7609 76.0569 30.7598 74.8599 30.7598ZM74.8599 24.3375C72.679 24.3375 70.8971 26.0187 70.8971 28.3376C70.8971 30.638 72.679 32.3351 74.8599 32.3351C77.0454 32.3351 78.8264 30.638 78.8264 28.3376C78.8264 26.0187 77.0454 24.3375 74.8599 24.3375Z" fill="white"/>
<path d="M16.3457 32.4284V32.4281V10.0722C16.3457 9.7559 16.4705 9.46244 16.681 9.23975L29.1041 21.2463L16.6774 33.2565C16.6258 33.2014 16.5794 33.1421 16.5387 33.0791C16.4118 32.8823 16.3456 32.6569 16.3457 32.4284ZM35.9884 18.8606L38.5519 20.2899C38.8477 20.5218 39.0282 20.868 39.0282 21.2505C39.0282 21.6233 38.8558 21.962 38.5726 22.1934L35.9907 23.6345L33.5198 21.2463L35.9884 18.8606ZM31.3115 23.38L33.1919 25.1968L24.2961 30.1606L31.3115 23.38ZM31.3124 19.1127L24.3059 12.3412L33.1894 17.2984L31.3124 19.1127Z" fill="white" stroke="white"/>
</svg>
